<svg xmlns="http://www.w3.org/2000/svg" viewBox="0 0 800 500" fill="none" aria-hidden="true">
  <defs>
    <radialGradient id="ib-spot1" cx="0.2" cy="0.25" r="0.55">
      <stop offset="0%" stop-color="#fef3c7" stop-opacity="0.35"/>
      <stop offset="100%" stop-color="#1e1b4b" stop-opacity="0"/>
    </radialGradient>
    <radialGradient id="ib-spot2" cx="0.85" cy="0.2" r="0.45">
      <stop offset="0%" stop-color="#fde68a" stop-opacity="0.22"/>
      <stop offset="100%" stop-color="#1e1b4b" stop-opacity="0"/>
    </radialGradient>
    <linearGradient id="ib-court" x1="300" y1="65" x2="500" y2="435" gradientUnits="userSpaceOnUse">
      <stop offset="0%" stop-color="#78716c"/>
      <stop offset="40%" stop-color="#57534e"/>
      <stop offset="100%" stop-color="#44403c"/>
    </linearGradient>
    <linearGradient id="ib-wood" x1="300" y1="400" x2="500" y2="480" gradientUnits="userSpaceOnUse">
      <stop offset="0%" stop-color="#92400e" stop-opacity="0.25"/>
      <stop offset="100%" stop-color="#451a03" stop-opacity="0.5"/>
    </linearGradient>
  </defs>
  <rect width="800" height="500" fill="#1e1b4b"/>
  <rect width="800" height="500" fill="url(#ib-spot1)"/>
  <rect width="800" height="500" fill="url(#ib-spot2)"/>
  <rect x="280" y="430" width="240" height="50" fill="url(#ib-wood)" opacity="0.9"/>
  <rect x="300" y="65" width="200" height="365" rx="3" fill="url(#ib-court)"/>
  <rect x="300" y="65" width="200" height="365" rx="3" fill="none" stroke="#a8a29e" stroke-width="4" opacity="0.75"/>
  <line x1="300" y1="247" x2="500" y2="247" stroke="#fafaf9" stroke-width="8" opacity="0.55"/>
  <line x1="300" y1="247" x2="500" y2="247" stroke="#d6d3d1" stroke-width="2" opacity="0.4"/>
  <line x1="300" y1="165" x2="500" y2="165" stroke="#e7e5e4" stroke-width="3" opacity="0.8"/>
  <line x1="300" y1="329" x2="500" y2="329" stroke="#e7e5e4" stroke-width="3" opacity="0.8"/>
  <line x1="400" y1="65" x2="400" y2="165" stroke="#e7e5e4" stroke-width="3" opacity="0.8"/>
  <line x1="400" y1="329" x2="400" y2="430" stroke="#e7e5e4" stroke-width="3" opacity="0.8"/>
  <circle cx="400" cy="247" r="36" stroke="#e7e5e4" stroke-width="3" fill="none" opacity="0.78"/>
  <g opacity="0.5">
    <path d="M120 50 L140 90 L100 90 Z" fill="#fbbf24"/>
    <path d="M640 55 L665 105 L615 105 Z" fill="#fcd34d"/>
  </g>
  <rect x="0" y="0" width="800" height="55" fill="#0c0a1a" opacity="0.55"/>
  <rect x="200" y="22" width="400" height="8" rx="2" fill="#57534e" opacity="0.7"/>
</svg>
