<svg xmlns="http://www.w3.org/2000/svg" viewBox="0 0 800 500" fill="none" aria-hidden="true">
  <defs>
    <linearGradient id="ob-sky" x1="0" y1="0" x2="800" y2="220" gradientUnits="userSpaceOnUse">
      <stop offset="0%" stop-color="#fb923c"/>
      <stop offset="35%" stop-color="#fdba74"/>
      <stop offset="70%" stop-color="#fecdd3"/>
      <stop offset="100%" stop-color="#e0e7ff"/>
    </linearGradient>
    <linearGradient id="ob-turf" x1="400" y1="300" x2="400" y2="500" gradientUnits="userSpaceOnUse">
      <stop offset="0%" stop-color="#65a30d"/>
      <stop offset="100%" stop-color="#365314"/>
    </linearGradient>
    <linearGradient id="ob-court" x1="300" y1="60" x2="500" y2="450" gradientUnits="userSpaceOnUse">
      <stop offset="0%" stop-color="#a3e635"/>
      <stop offset="100%" stop-color="#4d7c0f"/>
    </linearGradient>
  </defs>
  <rect width="800" height="500" fill="url(#ob-sky)"/>
  <ellipse cx="680" cy="110" rx="72" ry="36" fill="#f97316" opacity="0.35"/>
  <circle cx="720" cy="125" r="36" fill="#fb923c" opacity="0.9"/>
  <path fill="#fff7ed" opacity="0.55" d="M60 95c28-18 72-8 88 18 24-28 70-34 98-8 20-22 54-20 72 4 18-16 50-12 62 8-16-24-52-32-82-16-22-18-54-14-76 6-26-22-68-14-92 12z"/>
  <rect width="800" height="200" y="300" fill="url(#ob-turf)"/>
  <ellipse cx="400" cy="448" rx="140" ry="18" fill="#000" opacity="0.12"/>
  <rect x="300" y="60" width="200" height="390" rx="3" fill="url(#ob-court)"/>
  <rect x="300" y="60" width="200" height="390" rx="3" fill="none" stroke="#ecfccb" stroke-width="5" opacity="0.9"/>
  <line x1="300" y1="255" x2="500" y2="255" stroke="#fffbeb" stroke-width="11" opacity="0.88"/>
  <line x1="300" y1="255" x2="500" y2="255" stroke="#ca8a04" stroke-width="2" opacity="0.35"/>
  <line x1="300" y1="168" x2="500" y2="168" stroke="#fef9c3" stroke-width="4" opacity="0.92"/>
  <line x1="300" y1="342" x2="500" y2="342" stroke="#fef9c3" stroke-width="4" opacity="0.92"/>
  <line x1="400" y1="60" x2="400" y2="168" stroke="#fef9c3" stroke-width="4" opacity="0.92"/>
  <line x1="400" y1="342" x2="400" y2="450" stroke="#fef9c3" stroke-width="4" opacity="0.92"/>
  <circle cx="400" cy="255" r="40" stroke="#fef9c3" stroke-width="4" fill="none" opacity="0.88"/>
</svg>
